<svg id="Layer_1" data-name="Layer 1" xmlns="http://www.w3.org/2000/svg" viewBox="0 0 265.38 285.98"><path d="M223.86,516.6c-2.2-3.32-4.33-6.63-6.56-9.87-2.51-3.65-3.21-7.76-3.25-12.05-.05-5.43-.41-10.9,0-16.3a97.65,97.65,0,0,1,2.66-14.71c2.5-10.37,4.22-20.87,5.91-31.39.28-1.75.5-3.53.93-5.24a3.53,3.53,0,0,0-.75-3.36q-3-3.51-6.15-6.89c-3.33-3.6-6.78-7.09-10-10.76a14.75,14.75,0,0,1-3.68-10.2c0-4.23-.51-8.6,1.26-12.54,2.75-6.14,4.11-12.65,6-19,1.24-4.26,3.08-8.35,4.65-12.52.2-.52.43-1,.69-1.68a12.81,12.81,0,0,0-2-.32c-9.73-.08-19.13-2.28-28.56-4.33-12.84-2.8-24.31-8.52-34.84-16.24a14,14,0,0,1-4.79-5.29c-.52-1.12-.29-1.74.82-2.28a26.46,26.46,0,0,1,10.35-2.21c19.54-1.07,38.61,1.77,57.37,7.05,6,1.71,12.08,3.46,18.14,5.11a5.22,5.22,0,0,0,2.8-.06c4.41-1.46,8.71-3.32,13.19-4.52a78,78,0,0,1,28.44-2.38c5.74.6,11.39,2.12,17.08,3.27,2.49.49,2.8.39,4.19-1.66,5-7.39,9.79-15,15.13-22.14a143.21,143.21,0,0,1,44.26-39,26.45,26.45,0,0,1,9.29-3.2c-.63,3.21-1.15,6.31-1.83,9.36a100.15,100.15,0,0,1-20.92,42.19c-9,10.91-18.24,21.62-27.4,32.39a1.85,1.85,0,0,0-.38,2.17c1.86,5.08,3.62,10.19,5.45,15.29a20.69,20.69,0,0,0,1,2.12c.91-1,1.56-1.85,2.28-2.59q13.43-13.92,26.88-27.83c1.67-1.73,3.33-3.48,5.06-5.15a1.48,1.48,0,0,1,1.39-.23c13.54,8.79,27.1,17.55,40.52,26.51,3.55,2.37,6.69,5.35,10,8,.59.48,1.17,1,2,1.66-1.73,1.4-3.17,2.65-4.68,3.8-8.37,6.38-16.83,12.65-25.13,19.13-4.09,3.2-7.91,6.74-11.82,10.16a23.84,23.84,0,0,0-1.8,2.06c.76.35,1.26.6,1.78.81a222.33,222.33,0,0,1,30.52,15.17c.54.32,1.06.67,1.57,1,2.06,1.45,2.18,2.17.05,3.57-4.57,3-9.29,5.79-13.94,8.66q-8.94,5.53-17.88,11.08a8.07,8.07,0,0,0-.83.67c8.24,5.38,17.45,9,24.85,15.79-.57.34-1.05.63-1.53.9a531.55,531.55,0,0,0-49.33,31.71,8.59,8.59,0,0,0-3.73,5.71c-1.22,6.69-4.59,12.39-8.71,17.65a5.19,5.19,0,0,0-.92,5.1c1.44,5.56,2.7,11.18,3.81,16.82.72,3.64-.21,7.15-1.67,10.52a2.64,2.64,0,0,1-2.74,1.7,13.07,13.07,0,0,1-8.41-3.64,83.22,83.22,0,0,1-14.07-16.37,11.71,11.71,0,0,0-9.11-5.68c-7.92-.94-15.8-2.21-23.73-3a43,43,0,0,0-18.87,2.41c-3.15,1.11-5.88,3.57-8.63,5.65a64.11,64.11,0,0,1-26,11.86,9.47,9.47,0,0,1-5.79-.58c-2.36-1-3.08-2.51-2.16-5A36.54,36.54,0,0,1,218,523.2C219.89,520.87,222,518.68,223.86,516.6Zm114.79-41.27,18.61-18.19a116,116,0,0,0-13.84-6.69,107.43,107.43,0,0,1-10.07-4.89c-2-1.11-2.21-2.15-.83-4,1.75-2.34,3.66-4.57,5.6-6.77,3.5-4,7.06-7.87,10.77-12a270.66,270.66,0,0,0-29.19-9.73,13.94,13.94,0,0,0,.12,1.89,86.06,86.06,0,0,0,2.1,8.66c1.79,5.21,4,10.29,5.82,15.48C331.94,450.87,336.09,462.67,338.65,475.33Z" transform="translate(-145.1 -261.81)"/></svg>